<?xml version="1.0" encoding="UTF-8"?>
<svg id="uuid-4c80fab1-cdbb-4a07-8d0e-5279f007f572" data-name="OBJECTS" xmlns="http://www.w3.org/2000/svg" viewBox="0 0 64 64">
  <circle cx="32" cy="32" r="32" style="fill: #666;"/>
  <g>
    <path d="M49,21.4l-1.1-4.5c-10.9,5.6-15.6-3.3-15.6-3.3,0,0-4.8,8.9-15.6,3.3l-1.1,4.5s1.8,2.3,1.8,3.5-.2,2.5-.2,3.8c0,2.5,.1,4.9,.6,7.4,.6,2.8,1.6,5.6,3.2,8,1.7,2.6,4.3,4.1,6.9,5.7,.5,.3,.9,.6,1.4,.8,1.8,.9,3,1.8,3,1.8,0,0,1.3-.8,3-1.8,1.3-.7,2.4-1.4,3.5-2.1,1.4-1,2.9-1.9,4-3.2,1.1-1.3,1.9-2.7,2.6-4.3,.3-.8,.6-1.6,.9-2.4,.7-2.4,1.1-5,1.2-7.5,0-1.7,0-3.5-.1-5.2,0-.3,0-.6,0-.9,0-1.3,1.8-3.5,1.8-3.5Z" style="fill: #0f0f0f;"/>
    <path d="M32.3,54.1l-.8-.6s-1.2-.8-2.8-1.6c-.5-.3-1.1-.6-1.5-.9h-.1c-2.7-1.7-5.4-3.3-7.3-6.1-1.6-2.4-2.8-5.3-3.4-8.5-.5-2.4-.7-4.9-.6-7.7,0-.6,0-1.3,0-1.9,0-.7,0-1.3,0-1.9,0-.4-.7-1.7-1.4-2.6l-.4-.6,1.8-7,1.7,.9c9.4,4.9,13.5-2.4,13.6-2.7l1.3-2.5,1.3,2.5c.4,.8,4.4,7.4,13.6,2.7l1.7-.9,1.7,7.1-.4,.6c-.7,.9-1.4,2.2-1.4,2.6,0,.2,0,.3,0,.5v.2c.2,2,.2,3.7,.1,5.4-.1,2.9-.5,5.5-1.3,7.9-.3,.9-.6,1.8-.9,2.6-.8,1.8-1.7,3.4-2.8,4.7-1.2,1.5-2.8,2.5-4.2,3.5-1,.6-1.9,1.2-2.8,1.7l-.9,.5c-1.7,1-3,1.7-3,1.7l-.8,.5ZM17.2,21.1c.7,.9,1.6,2.5,1.6,3.8s0,1.4-.1,2.1c0,.6,0,1.1,0,1.7,0,2.5,.2,4.9,.6,7,.6,2.9,1.6,5.4,3,7.4,1.5,2.3,3.9,3.7,6.4,5.2h.1c.4,.3,.9,.6,1.3,.8,1,.5,1.8,1,2.4,1.3,.5-.3,1.3-.8,2.2-1.3l.9-.5c.9-.5,1.7-1,2.6-1.6,1.4-.9,2.7-1.8,3.7-2.9,.9-1.1,1.7-2.4,2.3-3.9,.3-.7,.6-1.5,.8-2.3,.6-2.1,1-4.5,1.1-7.2,0-1.5,0-3.2-.1-5v-.2c0-.3,0-.5,0-.8,0-1.3,1-2.9,1.6-3.8l-.5-2c-7.7,3.2-12.5-.5-14.6-2.9-2.1,2.4-6.9,6.1-14.6,2.9l-.5,2.1Z" style="fill: #fff;"/>
    <path d="M36.4,31.2v-2.2c0-1-.4-1.9-1-2.7-.7-.9-1.8-1.4-3.1-1.4-2.2,0-4,1.8-4,4.1v2.2h-1.1v8.7h10.3v-8.7h-1.1Zm-3.3,4.4v1.9h-1.4v-1.9c-.3-.2-.5-.5-.5-.9,0-.6,.5-1.1,1.2-1.1s0,0,0,0,0,0,0,0c.6,0,1.1,.5,1.1,1.1s-.2,.7-.5,.9Zm1.4-4.4h-4.4v-2.4c0-1.3,.9-2.3,2.2-2.3s2.2,1.1,2.2,2.3v2.4Z" style="fill: #fcfcfc;"/>
  </g>
</svg>